PathFileType	4	(X/Y/Z)	A:\Common\BMMB\PROJECTS\STRATO\DataSTRATO\DataSTRATO\0021~016 ID\0021~aa~ID 016\W8_STRATO_ID_16.trc
DataRate	CameraRate	NumFrames	NumMarkers	Units	OrigDataRate	OrigDataStartFrame	OrigNumFrames
250.00	250.00	11	18	mm	250.00	571	2481
Frame#	Time	r.should			l.should			c7			r.asis			l.asis			sacrum			r.bar1			l.bar1			r.knee1			l.knee1			r.bar2			r.mall			l.bar2			l.mall			r.met			r.heel			l.heel			l.met			
		X1	Y1	Z1	X2	Y2	Z2	X3	Y3	Z3	X4	Y4	Z4	X5	Y5	Z5	X6	Y6	Z6	X7	Y7	Z7	X8	Y8	Z8	X9	Y9	Z9	X10	Y10	Z10	X11	Y11	Z11	X12	Y12	Z12	X13	Y13	Z13	X14	Y14	Z14	X15	Y15	Z15	X16	Y16	Z16	X17	Y17	Z17	X18	Y18	Z18	

1734	6.936000	352.474779	1315.189838	-560.336411	55.200312	1306.623697	-555.320323	211.817846	1369.984388	-476.066321	338.378876	848.580539	-655.259252	103.248164	859.977126	-678.786516	197.760016	929.399788	-441.271842	412.848890	775.295615	-554.595232	12.808632	771.650791	-613.607526	335.011184	431.876063	-469.140202	69.772437	454.890102	-691.259146	320.701361	378.831297	-458.355337	305.944920	106.373996	-242.426038	68.045139	412.162185	-699.527800	106.195129	52.778725	-787.371755	291.655242	37.018724	-359.260798	258.537889	102.156438	-176.165074	154.690906	26.441827	-727.554202	134.685770	47.378078	-923.389196	
1735	6.940000	351.869881	1315.540552	-564.631224	54.515347	1306.744576	-559.860587	211.037606	1370.347500	-480.596393	337.315649	848.394275	-659.814358	102.753155	860.815108	-683.565795	197.544858	929.618239	-445.966899	411.998540	774.925470	-560.060203	12.351755	772.902191	-618.792176	334.615856	431.817174	-474.152744	69.112554	455.747873	-695.018351	320.478737	378.643245	-463.174373	306.198508	108.551331	-244.110927	67.687020	412.934303	-703.681469	106.304944	52.815951	-788.418412	291.566014	37.037887	-359.583229	258.858144	105.406120	-177.953541	154.614866	26.856355	-727.971971	135.353982	45.502029	-924.264312	
1736	6.944000	351.317227	1315.929532	-569.006026	53.867720	1306.965828	-564.404726	210.322708	1370.746613	-485.206217	336.213797	848.341405	-664.454758	102.198541	861.676216	-688.350320	197.398990	929.860711	-450.613767	410.738260	774.678588	-565.738559	11.894662	774.166882	-624.021769	334.240645	431.757480	-479.310930	68.525232	456.493556	-698.921323	320.310324	378.466845	-468.138039	306.478709	110.826232	-245.956570	67.432038	413.614571	-708.013058	106.419295	52.808154	-789.307892	291.468680	37.046630	-359.933466	259.118438	108.784460	-179.949880	154.568434	27.201962	-728.340507	135.715380	43.865278	-924.944818	
1737	6.948000	350.779921	1316.409707	-573.469520	53.235330	1307.221413	-568.980932	209.603414	1371.151447	-489.796102	334.987789	848.669171	-669.415355	101.579726	862.547159	-693.128943	197.254539	930.071592	-455.242991	409.813404	774.253726	-571.277320	11.388615	775.391996	-629.187524	333.894342	431.676298	-484.626174	68.034522	457.167029	-703.059614	320.230603	378.311098	-473.284245	306.787699	113.254882	-247.987449	67.274570	414.246142	-712.538719	106.501177	52.738655	-789.913118	291.334063	37.001867	-360.292047	259.339064	112.295754	-182.111740	154.543936	27.479885	-728.663266	135.753214	42.472769	-925.366998	
1738	6.952000	350.210488	1316.885948	-577.906489	52.571736	1307.511210	-573.561549	208.858892	1371.605039	-494.381189	333.653063	849.337697	-674.630940	100.908488	863.458812	-697.867811	197.134301	930.338383	-459.810704	408.991218	773.788631	-576.783001	10.870847	776.596248	-634.383678	333.552897	431.616992	-490.140736	67.619048	457.599491	-707.424283	320.178360	378.124744	-478.553623	307.134360	115.774848	-250.182718	67.157894	414.845735	-717.174292	106.557660	52.669358	-790.353417	291.208208	36.961123	-360.691160	259.584367	115.931600	-184.512645	154.566199	27.744954	-728.910983	135.607988	41.251302	-925.634384	
1739	6.956000	349.589527	1317.423105	-582.367897	51.897753	1307.875872	-578.223944	208.186805	1372.086287	-498.991132	332.482874	849.438429	-679.109991	100.158095	864.357889	-702.593446	197.035626	930.643737	-464.393795	408.181369	773.306370	-582.248330	10.344125	777.748406	-639.495254	333.210289	431.486785	-495.813668	67.263119	457.804322	-711.995423	320.202023	377.951324	-484.080911	307.484418	118.372783	-252.493709	67.146875	415.458828	-721.875429	106.582038	52.598368	-790.679395	291.097164	36.919631	-361.086130	259.882420	119.695343	-187.121451	154.541120	27.920475	-729.148924	135.415196	40.142655	-925.785899	
1740	6.960000	348.918200	1318.004370	-586.827159	51.229484	1308.295488	-582.858562	207.528397	1372.595191	-503.588855	331.314564	849.609971	-683.622241	99.319667	865.257859	-707.259178	196.945801	930.901468	-468.994886	407.364041	772.857189	-587.755919	9.771981	778.820038	-644.387662	332.932651	431.413531	-501.767337	67.079395	458.104968	-715.094566	320.302427	377.786934	-489.774644	307.918340	121.084735	-255.001545	67.147911	416.026592	-726.590574	106.604554	52.570075	-791.005969	290.991127	36.889739	-361.501575	260.120869	123.911187	-189.578131	154.500693	28.115649	-729.374826	135.316521	39.174087	-926.001430	
1741	6.964000	348.301381	1318.569064	-591.312587	50.531615	1308.746099	-587.425828	206.841141	1373.128653	-508.117199	330.094248	850.037873	-688.418925	98.440640	866.179466	-711.923718	196.900159	931.178212	-473.544240	406.527430	772.430897	-593.249440	9.181391	779.857516	-649.194241	332.682848	431.319356	-507.953167	66.943586	458.652169	-719.554365	320.476621	377.637237	-495.719314	308.386534	123.924151	-257.702082	67.211427	416.677475	-731.459379	106.647491	52.543055	-791.380942	290.859252	36.825079	-361.975491	260.311365	128.489316	-191.957533	154.425800	28.312519	-729.605317	135.298491	38.398560	-926.330030	
1742	6.968000	347.685903	1319.175124	-595.856369	49.901079	1309.319973	-592.089772	206.156820	1373.673081	-512.648284	328.854531	850.639880	-693.387568	97.516470	867.103159	-716.606736	196.835026	931.475043	-478.055656	405.699551	772.042692	-598.707438	8.580846	780.885935	-653.920174	332.485616	431.239367	-514.468372	66.827576	459.364593	-725.530267	320.696652	377.543479	-501.946986	308.870226	126.901716	-260.610998	67.282438	417.303354	-736.259699	106.700763	52.486971	-791.819096	290.727049	36.781080	-362.460732	260.863096	132.752568	-195.962876	154.330149	28.504435	-729.847550	135.434747	37.797865	-926.721215	
1743	6.972000	347.018301	1319.788456	-600.337923	49.307678	1309.916496	-596.745729	205.487147	1374.226332	-517.134428	327.598095	851.334751	-698.382318	96.559554	868.053615	-721.292615	196.751431	931.772113	-482.569575	404.904425	771.758676	-604.201078	7.978906	781.884193	-658.537507	332.337350	431.170762	-521.331429	66.748436	460.115820	-732.104301	320.966572	377.454847	-508.395195	309.438974	130.035043	-263.766110	67.410693	417.854488	-741.012752	106.793933	52.408546	-792.288423	290.597707	36.750268	-363.007814	261.787206	137.445182	-200.826928	154.208481	28.704517	-730.071366	135.717511	37.323512	-927.126884	
1744	6.976000	346.339822	1320.443869	-604.806304	48.683368	1310.523987	-601.336002	204.805374	1374.756932	-521.588445	326.369882	852.081180	-703.377068	95.606506	869.009554	-725.943804	196.696669	932.098806	-487.028211	403.850675	771.388948	-609.472632	7.344608	782.791615	-663.026810	332.233310	431.133926	-528.511405	66.723236	460.779428	-738.358498	321.250558	377.396792	-515.079141	310.012370	133.243024	-267.179668	67.593917	418.322176	-745.681584	106.926873	52.296802	-792.787075	290.428519	36.696896	-363.571912	262.471050	141.910344	-205.308154	154.127002	28.863721	-730.269611	136.071071	36.882307	-927.537441	
